<?xml version="1.0" encoding="UTF-8" standalone="no"?>
<!-- Generator: Adobe Illustrator 16.0.0, SVG Export Plug-In . SVG Version: 6.00 Build 0)  -->

<svg
   xmlns:dc="http://purl.org/dc/elements/1.1/"
   xmlns:cc="http://creativecommons.org/ns#"
   xmlns:rdf="http://www.w3.org/1999/02/22-rdf-syntax-ns#"
   xmlns:svg="http://www.w3.org/2000/svg"
   xmlns="http://www.w3.org/2000/svg"
   xmlns:sodipodi="http://sodipodi.sourceforge.net/DTD/sodipodi-0.dtd"
   xmlns:inkscape="http://www.inkscape.org/namespaces/inkscape"
   version="1.0"
   id="Capa_1"
   x="0px"
   y="0px"
   width="912.73865"
   height="1008.9518"
   viewBox="0 0 912.73865 1008.9518"
   enable-background="new 0 0 1200 1200"
   xml:space="preserve"
   sodipodi:docname="rounded-hexagon-filled.svg"
   inkscape:version="0.92.4 (5da689c313, 2019-01-14)"><metadata
   id="metadata30"><rdf:RDF><cc:Work
       rdf:about=""><dc:format>image/svg+xml</dc:format><dc:type
         rdf:resource="http://purl.org/dc/dcmitype/StillImage" /><dc:title></dc:title></cc:Work></rdf:RDF></metadata><defs
   id="defs28" /><sodipodi:namedview
   pagecolor="#ffffff"
   bordercolor="#666666"
   borderopacity="1"
   objecttolerance="10"
   gridtolerance="10"
   guidetolerance="10"
   inkscape:pageopacity="0"
   inkscape:pageshadow="2"
   inkscape:window-width="1920"
   inkscape:window-height="1017"
   id="namedview26"
   showgrid="false"
   inkscape:zoom="0.70833333"
   inkscape:cx="226.9578"
   inkscape:cy="504.47621"
   inkscape:window-x="-8"
   inkscape:window-y="-8"
   inkscape:window-maximized="1"
   inkscape:current-layer="Capa_1" />
<g
   id="g23"
   transform="rotate(30,706.43528,284.21976)"
   style="fill:#1ccdca;fill-opacity:1">
	<path
   d="M 786.773,1056.369 H 413.227 c -42.298,0 -93.916,-29.802 -115.066,-66.434 L 111.385,666.433 c -21.149,-36.631 -21.149,-96.235 0,-132.867 L 298.16,210.064 c 21.149,-36.631 72.769,-66.433 115.066,-66.433 h 373.547 c 42.299,0 93.918,29.802 115.066,66.433 l 186.775,323.502 c 21.149,36.632 21.149,96.235 0,132.867 L 901.84,989.936 c -21.149,36.631 -72.768,66.433 -115.067,66.433 z M 413.227,157.631 c -37.2,0 -84.342,27.217 -102.941,59.433 L 123.51,540.566 c -18.601,32.216 -18.601,86.651 0,118.867 l 186.775,323.502 c 18.601,32.216 65.742,59.434 102.941,59.434 h 373.547 c 37.201,0 84.342,-27.217 102.941,-59.434 l 186.775,-323.502 c 18.601,-32.216 18.601,-86.65 0,-118.867 L 889.715,217.064 c -18.6,-32.216 -65.74,-59.433 -102.941,-59.433 z"
   id="path21"
   inkscape:connector-curvature="0"
   style="fill:#1ccdca;fill-opacity:1" />
</g>
<path
   style="fill:#f9fafc;fill-opacity:1;stroke-width:1.41176474"
   d="m 432.36957,992.30539 c -14.37209,-2.66262 -23.1202,-5.57129 -33.21278,-11.04295 -4.67879,-2.5366 -81.21768,-46.52781 -170.08641,-97.75825 L 67.490879,790.35793 54.620299,777.65204 C 34.759325,758.04522 21.372685,733.62606 16.487155,708.0917 c -2.974006,-15.54373 -2.974006,-391.68853 0,-407.23226 4.88553,-25.53436 18.27217,-49.95351 38.133144,-69.56034 L 67.490879,218.59322 229.10127,125.41675 C 317.987,74.169688 395.16117,29.903187 400.59944,27.046746 c 16.80701,-8.827838 30.34917,-11.658855 55.77013,-11.658855 24.03542,0 38.08278,2.664142 52.72348,9.999242 4.00209,2.005071 81.28829,46.296696 171.74711,98.425837 l 164.47059,94.78025 12.82455,12.70588 c 19.81846,19.63508 32.49276,42.64628 37.87442,68.76401 1.98461,9.63151 2.24221,33.11558 2.24221,204.41246 0,171.29688 -0.2576,194.78095 -2.24221,204.41246 -5.39475,26.18128 -18.07395,49.19632 -37.88272,68.76401 l -12.8624,12.70589 -164.44752,94.78025 c -90.44614,52.12914 -167.70336,96.41134 -171.68275,98.40491 -18.18319,9.10931 -53.27242,13.11456 -76.76476,8.7623 z"
   id="path22"
   inkscape:connector-curvature="0" /></svg>